<svg width="25" height="27" viewBox="0 0 25 27" fill="none" xmlns="http://www.w3.org/2000/svg">
<path d="M24 22.4476H8M0 3.78088H5.33333H0ZM24 3.78088H10.6667H24ZM0 13.1142H16H0ZM24 13.1142H21.3333H24ZM0 22.4476H2.66667H0Z" stroke="#565656" stroke-width="2" stroke-linecap="round"/>
<path d="M8.38096 6.33333C9.85372 6.33333 11.0476 5.13943 11.0476 3.66667C11.0476 2.19391 9.85372 1 8.38096 1C6.9082 1 5.71429 2.19391 5.71429 3.66667C5.71429 5.13943 6.9082 6.33333 8.38096 6.33333Z" stroke="#565656" stroke-width="2" stroke-linecap="round"/>
<path d="M18.6667 15.781C20.1394 15.781 21.3333 14.5871 21.3333 13.1143C21.3333 11.6415 20.1394 10.4476 18.6667 10.4476C17.1939 10.4476 16 11.6415 16 13.1143C16 14.5871 17.1939 15.781 18.6667 15.781Z" stroke="#565656" stroke-width="2" stroke-linecap="round"/>
<path d="M5.33338 25.1141C6.80614 25.1141 8.00005 23.9202 8.00005 22.4474C8.00005 20.9747 6.80614 19.7808 5.33338 19.7808C3.86062 19.7808 2.66672 20.9747 2.66672 22.4474C2.66672 23.9202 3.86062 25.1141 5.33338 25.1141Z" stroke="#565656" stroke-width="2" stroke-linecap="round"/>
</svg>
