<svg width="38" height="40" viewBox="0 0 38 40" fill="none" xmlns="http://www.w3.org/2000/svg">
<path d="M37 34.0649H12.3333M0 5.28712H8.22222H0ZM37 5.28712H16.4444H37ZM0 19.676H24.6667H0ZM37 19.676H32.8889H37ZM0 34.0649H4.11111H0Z" stroke="white" stroke-width="2" stroke-linecap="round"/>
<path d="M12.9206 9.22222C15.1911 9.22222 17.0317 7.38161 17.0317 5.11111C17.0317 2.84061 15.1911 1 12.9206 1C10.6501 1 8.80952 2.84061 8.80952 5.11111C8.80952 7.38161 10.6501 9.22222 12.9206 9.22222Z" stroke="white" stroke-width="2" stroke-linecap="round"/>
<path d="M28.7778 23.7874C31.0483 23.7874 32.8889 21.9468 32.8889 19.6763C32.8889 17.4058 31.0483 15.5652 28.7778 15.5652C26.5073 15.5652 24.6667 17.4058 24.6667 19.6763C24.6667 21.9468 26.5073 23.7874 28.7778 23.7874Z" stroke="white" stroke-width="2" stroke-linecap="round"/>
<path d="M8.22229 38.176C10.4928 38.176 12.3334 36.3354 12.3334 34.0649C12.3334 31.7944 10.4928 29.9538 8.22229 29.9538C5.95179 29.9538 4.11118 31.7944 4.11118 34.0649C4.11118 36.3354 5.95179 38.176 8.22229 38.176Z" stroke="white" stroke-width="2" stroke-linecap="round"/>
</svg>
