<svg width="26" height="24" viewBox="0 0 26 24" fill="none" xmlns="http://www.w3.org/2000/svg">
<path d="M26 11.2515C26 17.4656 20.1793 22.5031 13 22.5031C11.7124 22.5048 10.4302 22.3394 9.18612 22.0112C8.23712 22.487 6.058 23.4 2.392 23.9947C2.067 24.0462 1.82 23.7118 1.94837 23.4129C2.52362 22.0691 3.04362 20.2785 3.19963 18.6454C1.209 16.6684 0 14.0805 0 11.2515C0 5.03748 5.82075 0 13 0C20.1793 0 26 5.03748 26 11.2515ZM8.125 11.2515C8.125 10.8252 7.95379 10.4164 7.64905 10.115C7.3443 9.81353 6.93098 9.64418 6.5 9.64418C6.06902 9.64418 5.6557 9.81353 5.35095 10.115C5.0462 10.4164 4.875 10.8252 4.875 11.2515C4.875 11.6778 5.0462 12.0867 5.35095 12.3881C5.6557 12.6896 6.06902 12.8589 6.5 12.8589C6.93098 12.8589 7.3443 12.6896 7.64905 12.3881C7.95379 12.0867 8.125 11.6778 8.125 11.2515ZM14.625 11.2515C14.625 10.8252 14.4538 10.4164 14.149 10.115C13.8443 9.81353 13.431 9.64418 13 9.64418C12.569 9.64418 12.1557 9.81353 11.851 10.115C11.5462 10.4164 11.375 10.8252 11.375 11.2515C11.375 11.6778 11.5462 12.0867 11.851 12.3881C12.1557 12.6896 12.569 12.8589 13 12.8589C13.431 12.8589 13.8443 12.6896 14.149 12.3881C14.4538 12.0867 14.625 11.6778 14.625 11.2515ZM19.5 12.8589C19.931 12.8589 20.3443 12.6896 20.649 12.3881C20.9538 12.0867 21.125 11.6778 21.125 11.2515C21.125 10.8252 20.9538 10.4164 20.649 10.115C20.3443 9.81353 19.931 9.64418 19.5 9.64418C19.069 9.64418 18.6557 9.81353 18.351 10.115C18.0462 10.4164 17.875 10.8252 17.875 11.2515C17.875 11.6778 18.0462 12.0867 18.351 12.3881C18.6557 12.6896 19.069 12.8589 19.5 12.8589Z" fill="#F7F7F7"/>
</svg>
