<svg width="23" height="23" viewBox="0 0 23 23" fill="none" xmlns="http://www.w3.org/2000/svg">
<path d="M1.14978 12.6501H2.2998V20.7C2.2998 21.9685 3.33138 23 4.59985 23H18.4001C19.6686 23 20.7002 21.9685 20.7002 20.7V12.6501H21.8502C22.0776 12.6501 22.2999 12.5826 22.489 12.4562C22.6781 12.3299 22.8254 12.1503 22.9125 11.9402C22.9995 11.7301 23.0223 11.4989 22.9779 11.2758C22.9336 11.0528 22.8241 10.8479 22.6633 10.6871L12.3131 0.337178C12.2064 0.230291 12.0796 0.145494 11.9401 0.0876369C11.8006 0.0297802 11.651 0 11.5 0C11.349 0 11.1994 0.0297802 11.0599 0.0876369C10.9204 0.145494 10.7936 0.230291 10.6869 0.337178L0.336712 10.6871C0.175928 10.8479 0.0664381 11.0528 0.0220845 11.2758C-0.0222692 11.4989 0.000504804 11.7301 0.0875272 11.9402C0.17455 12.1503 0.321913 12.3299 0.510989 12.4562C0.700064 12.5826 0.922362 12.6501 1.14978 12.6501ZM9.19995 20.7V14.9501H13.8V20.7H9.19995ZM11.5 2.7763L18.4001 9.67623V14.9501L18.4013 20.7H16.1001V14.9501C16.1001 13.6816 15.0685 12.6501 13.8 12.6501H9.19995C7.93147 12.6501 6.8999 13.6816 6.8999 14.9501V20.7H4.59985V9.67623L11.5 2.7763Z" fill="#565656"/>
</svg>
