<svg width="25" height="25" viewBox="0 0 25 25" fill="none" xmlns="http://www.w3.org/2000/svg">
<path d="M16.1997 10.9424C17.5809 10.9424 18.8791 11.479 19.8546 12.4546L20.8111 13.4112C22.7645 12.545 24.2898 10.8086 24.7961 8.69194C25.0756 7.52398 25.0568 6.39312 24.8066 5.35211C24.679 4.82086 24.0044 4.64361 23.6182 5.02965L20.2543 8.3939H16.5632V4.74615L19.9271 1.3819C20.3134 0.995578 20.1359 0.320873 19.6047 0.193432C18.5638 -0.0568114 17.433 -0.0756101 16.2652 0.20393C13.5652 0.849924 11.4614 3.14435 11.0313 5.88751C10.9609 6.294 10.9463 6.68951 10.9512 7.08013L14.9928 11.126C15.3892 10.9913 15.7945 10.9424 16.1997 10.9424ZM18.7483 13.6035C17.6175 12.4727 15.9375 12.2574 14.5792 12.9248L9.33021 7.71489V4.68707L3.12472 7.32165e-05L0 3.08112L4.68707 9.28715L7.7161 9.28755L12.9256 14.4926C12.2582 15.851 12.4739 17.5312 13.6047 18.662L19.3171 24.3798C20.0309 25.0878 21.1826 25.0878 21.8906 24.3797L24.466 21.804C25.174 21.096 25.174 19.9446 24.4659 19.2303L18.7483 13.6035ZM11.1269 14.9903L8.23656 12.1045L0.966709 19.375C-0.320772 20.6626 -0.320772 22.7481 0.966709 24.0356C1.60923 24.6777 2.45144 25 3.2956 25C4.13976 25 4.98197 24.6781 5.62547 24.0342L11.4404 18.2188C11.0097 17.2022 10.8682 16.084 11.1269 14.9903ZM3.12472 23.0469C2.4778 23.0469 1.95295 22.522 1.95295 21.875C1.95295 21.2275 2.4778 20.7031 3.12472 20.7031C3.77163 20.7031 4.29648 21.2256 4.29648 21.875C4.29648 22.5244 3.77163 23.0469 3.12472 23.0469Z" fill="white"/>
</svg>
