<svg width="23" height="23" viewBox="0 0 23 23" fill="none" xmlns="http://www.w3.org/2000/svg">
<path d="M2.46329 2.30015L4.61148 16.2564C4.65013 16.5346 4.78902 16.789 5.00205 16.972C5.21508 17.155 5.48759 17.2538 5.76838 17.25H18.3999C18.6473 17.2501 18.8882 17.1703 19.0866 17.0226C19.2851 16.8749 19.4306 16.6671 19.5016 16.4301L22.9516 4.93018C23.0031 4.75847 23.0137 4.57712 22.9826 4.40059C22.9515 4.22407 22.8795 4.05725 22.7725 3.91347C22.6655 3.76968 22.5263 3.65291 22.3661 3.57246C22.2059 3.49202 22.0292 3.45013 21.8499 3.45014H4.96798L4.58848 0.991458C4.55015 0.709985 4.40829 0.452904 4.19059 0.270413C3.97861 0.0914788 3.70895 -0.00453617 3.43159 0.000164792H1.15C0.998976 0.000164789 0.849435 0.0299101 0.709911 0.0877026C0.570387 0.145495 0.443613 0.230203 0.336826 0.33699C0.230039 0.443776 0.145331 0.57055 0.0875381 0.710074C0.0297454 0.849597 0 0.999137 0 1.15016C0 1.30118 0.0297454 1.45072 0.0875381 1.59024C0.145331 1.72976 0.230039 1.85654 0.336826 1.96332C0.443613 2.07011 0.570387 2.15482 0.709911 2.21261C0.849435 2.2704 0.998976 2.30015 1.15 2.30015H2.46329ZM6.73668 14.9501L5.32218 5.75012H20.3043L17.5443 14.9501H6.73668ZM9.19997 20.7C9.19997 21.31 8.95765 21.895 8.52631 22.3263C8.09498 22.7577 7.50997 23 6.89998 23C6.28998 23 5.70497 22.7577 5.27364 22.3263C4.8423 21.895 4.59998 21.31 4.59998 20.7C4.59998 20.09 4.8423 19.505 5.27364 19.0737C5.70497 18.6424 6.28998 18.4 6.89998 18.4C7.50997 18.4 8.09498 18.6424 8.52631 19.0737C8.95765 19.505 9.19997 20.09 9.19997 20.7ZM19.5499 20.7C19.5499 21.31 19.3076 21.895 18.8763 22.3263C18.4449 22.7577 17.8599 23 17.2499 23C16.6399 23 16.0549 22.7577 15.6236 22.3263C15.1923 21.895 14.9499 21.31 14.9499 20.7C14.9499 20.09 15.1923 19.505 15.6236 19.0737C16.0549 18.6424 16.6399 18.4 17.2499 18.4C17.8599 18.4 18.4449 18.6424 18.8763 19.0737C19.3076 19.505 19.5499 20.09 19.5499 20.7Z" fill="#565656"/>
</svg>
