<svg width="18" height="22" viewBox="0 0 18 22" fill="none" xmlns="http://www.w3.org/2000/svg">
<path d="M15.375 19.5H11.7C12.1781 19.0312 12.7031 18.4969 13.2281 17.8969C15.8625 14.8687 17.25 11.6625 17.25 8.625C17.25 6.33751 16.3413 4.14371 14.7238 2.5262C13.1063 0.908703 10.9125 0 8.625 0C6.33751 0 4.14371 0.908703 2.5262 2.5262C0.908703 4.14371 0 6.33751 0 8.625C0 13.3125 3.19688 17.2406 5.55 19.5H1.875C1.57663 19.5 1.29048 19.6185 1.0795 19.8295C0.868527 20.0405 0.75 20.3266 0.75 20.625C0.75 20.9234 0.868527 21.2095 1.0795 21.4205C1.29048 21.6315 1.57663 21.75 1.875 21.75H15.375C15.6734 21.75 15.9595 21.6315 16.1705 21.4205C16.3815 21.2095 16.5 20.9234 16.5 20.625C16.5 20.3266 16.3815 20.0405 16.1705 19.8295C15.9595 19.6185 15.6734 19.5 15.375 19.5ZM2.25 8.625C2.25 6.93425 2.92165 5.31274 4.11719 4.11719C5.31274 2.92165 6.93425 2.25 8.625 2.25C10.3158 2.25 11.9373 2.92165 13.1328 4.11719C14.3283 5.31274 15 6.93425 15 8.625C15 11.7469 13.1344 14.5687 11.5594 16.3781C10.6661 17.4061 9.68422 18.3535 8.625 19.2094C7.56578 18.3535 6.58388 17.4061 5.69063 16.3781C4.125 14.5687 2.25 11.7469 2.25 8.625ZM8.625 12.75C9.44085 12.75 10.2384 12.5081 10.9167 12.0548C11.5951 11.6016 12.1238 10.9573 12.436 10.2036C12.7482 9.44982 12.8299 8.62042 12.6707 7.82025C12.5116 7.02008 12.1187 6.28508 11.5418 5.70818C10.9649 5.13129 10.2299 4.73842 9.42975 4.57926C8.62958 4.4201 7.80018 4.50179 7.04643 4.814C6.29269 5.12621 5.64845 5.65492 5.19519 6.33327C4.74193 7.01163 4.5 7.80915 4.5 8.625C4.5 9.71902 4.9346 10.7682 5.70818 11.5418C6.48177 12.3154 7.53098 12.75 8.625 12.75ZM8.625 6.75C8.99584 6.75 9.35835 6.85997 9.66669 7.06599C9.97504 7.27202 10.2154 7.56486 10.3573 7.90747C10.4992 8.25008 10.5363 8.62708 10.464 8.9908C10.3916 9.35451 10.213 9.6886 9.95082 9.95082C9.6886 10.213 9.35451 10.3916 8.99079 10.464C8.62708 10.5363 8.25008 10.4992 7.90747 10.3573C7.56486 10.2154 7.27202 9.97504 7.06599 9.66669C6.85997 9.35835 6.75 8.99584 6.75 8.625C6.75246 8.12848 6.9508 7.653 7.3019 7.3019C7.653 6.9508 8.12848 6.75246 8.625 6.75Z" fill="#565656"/>
</svg>
