<svg width="18" height="16" viewBox="0 0 18 16" fill="none" xmlns="http://www.w3.org/2000/svg">
<path d="M17.9518 8.41667L15.3804 1.75L15.3402 1.675L15.292 1.60833C15.2839 1.6 15.2839 1.6 15.2839 1.59167L15.2196 1.525H15.2116L15.1554 1.48333L15.1393 1.46667L15.067 1.425H15.0589L14.9866 1.4H14.9705L14.8902 1.38333H14.6491L9.64286 2.5V0.666667C9.64286 0.489856 9.57513 0.320287 9.45457 0.195262C9.33401 0.070238 9.1705 0 9 0C8.8295 0 8.66599 0.070238 8.54543 0.195262C8.42487 0.320287 8.35714 0.489856 8.35714 0.666667V2.8L3.07768 4.01667H3.02143L2.94107 4.05H2.925L2.86071 4.08333L2.8601 4.08652L2.85836 4.08923L2.85575 4.09103L2.85268 4.09167L2.78036 4.15C2.78036 4.15221 2.77951 4.15433 2.778 4.15589C2.7765 4.15745 2.77445 4.15833 2.77232 4.15833L2.72411 4.21667H2.71607C2.69471 4.23754 2.67822 4.26319 2.66786 4.29167L2.65179 4.30833L2.61964 4.38333H2.61161L0.0482143 11.0833C0.0167841 11.1627 0.000413351 11.2476 0 11.3333C0 13.275 1.96875 14 3.21429 14C4.45982 14 6.42857 13.275 6.42857 11.3333C6.42816 11.2476 6.41179 11.1627 6.38036 11.0833L4.09018 5.15L8.35714 4.16667V14.6667H7.07143C6.90093 14.6667 6.73742 14.7369 6.61686 14.8619C6.4963 14.987 6.42857 15.1565 6.42857 15.3333C6.42857 15.5101 6.4963 15.6797 6.61686 15.8047C6.73742 15.9298 6.90093 16 7.07143 16H10.9286C11.0991 16 11.2626 15.9298 11.3831 15.8047C11.5037 15.6797 11.5714 15.5101 11.5714 15.3333C11.5714 15.1565 11.5037 14.987 11.3831 14.8619C11.2626 14.7369 11.0991 14.6667 10.9286 14.6667H9.64286V3.86667L13.733 2.925L11.6196 8.41667C11.5882 8.49601 11.5718 8.58089 11.5714 8.66667C11.5714 10.6083 13.5402 11.3333 14.7857 11.3333C16.0312 11.3333 18 10.6083 18 8.66667C17.9996 8.58089 17.9832 8.49601 17.9518 8.41667ZM3.21429 12.6667C2.61161 12.6667 1.38214 12.3667 1.29375 11.45L3.21429 6.45833L5.13482 11.45C5.04643 12.3667 3.81696 12.6667 3.21429 12.6667ZM14.7857 10C14.183 10 12.9536 9.7 12.8652 8.78333L14.7857 3.79167L16.7062 8.78333C16.6179 9.7 15.3884 10 14.7857 10Z" fill="#565656"/>
</svg>
